<?xml version="1.0"?>
<svg width="512" height="512" xmlns="http://www.w3.org/2000/svg" xmlns:svg="http://www.w3.org/2000/svg" xml:space="preserve">
 <!-- Forehead: between hat band and eyeglasses (hand-tuned; tweak M/C points if alignment is off) -->
 <g class="layer" display="inline">
  <path d="m23.56,288.56l472.44,-0.56c0.57,0.56 -52.44,79.56 -238.44,91.56c-186,12 -234,-91 -234,-91z" class="background-fill" />
  <path d="m135.75,213.72c3.41,-18.13 6.97,-36.94 9.94,-52.61c1.5,-7.85 2.84,-14.89 3.95,-20.67c1.13,-5.78 2,-10.32 2.55,-13.05l0,-0.02c0.72,-3.5 2.14,-6.67 4.2,-9.57c3.08,-4.36 7.64,-8.08 13.3,-10.71c5.62,-2.62 12.28,-4.12 19.25,-4.12c8.47,0 17.36,2.19 25.64,7.09c9.08,5.38 16.23,8.53 22.26,10.31c3.04,0.9 5.75,1.44 8.22,1.75s4.69,0.38 6.53,0.38c1.75,0 3.22,-0.06 4.41,-0.05c2,0 4.55,-0.04 7.48,-0.33c4.41,-0.37 9.74,-1.26 15.57,-3.15c5.86,-1.89 12.23,-4.78 18.78,-9.16c3.92,-2.62 8.03,-4.5 12.2,-5.72c4.19,-1.23 8.44,-1.81 12.63,-1.81c4.57,0 9.06,0.69 13.25,1.97c6.28,1.92 11.84,5.16 15.98,9.19c2.08,2.03 3.8,4.22 5.11,6.54c1.33,2.33 2.28,4.8 2.81,7.4l0,0.01c0.55,2.74 1.44,7.27 2.55,13.05c3.34,17.34 8.77,46.09 13.89,73.28l0,0c0.69,3.59 1.34,7.16 2,10.67l-244.5,0c0.66,-3.52 1.33,-7.08 2,-10.67z" class="background-fill" />
  <path d="m406.22,278.62c-0.17,-0.9 -0.41,-2.1 -0.69,-3.62l0,0c-2.03,-10.91 -6.9,-36.91 -12.09,-64.5l0,-0.03c-3.41,-18.11 -6.96,-36.94 -9.94,-52.63c-1.48,-7.84 -2.83,-14.92 -3.95,-20.73c-1.13,-5.8 -2.02,-10.34 -2.58,-13.2c-1.22,-6 -3.74,-11.52 -7.16,-16.32c-5.09,-7.22 -12.22,-12.89 -20.34,-16.78c-8.11,-3.89 -17.3,-6.03 -26.81,-6.03c-5.8,0 -11.72,0.8 -17.57,2.5c-5.81,1.72 -11.56,4.36 -17,7.97c-6.87,4.59 -13.22,6.97 -18.69,8.25c-2.71,0.64 -5.25,1 -7.48,1.22c-2.25,0.19 -4.22,0.22 -5.92,0.22c-1.63,0 -3.05,0.06 -4.41,0.06c-1.44,0 -2.78,-0.06 -4.34,-0.25c-2.33,-0.28 -5.13,-0.91 -8.94,-2.34c-3.83,-1.46 -8.66,-3.75 -14.81,-7.41c-11.07,-6.56 -23.1,-9.53 -34.57,-9.53c-6.31,0 -12.46,0.89 -18.25,2.59c-8.68,2.57 -16.59,6.94 -22.87,13c-3.16,3.03 -5.88,6.5 -8.06,10.32c-2.18,3.84 -3.8,8.06 -4.69,12.53c-0.6,2.86 -1.49,7.4 -2.6,13.2c-3.37,17.42 -8.81,46.17 -13.9,73.36c-5.19,27.62 -10.06,53.62 -12.1,64.53l0,0c-0.28,1.52 -0.51,2.72 -0.68,3.63l-105.78,0l6.19,12.6c0.31,0.61 3.37,6.66 11,15.36c11.45,13.07 33.25,32.07 71.15,47.69c10.82,4.47 22.96,8.63 36.52,12.35l0,4.64l41.55,48.04c0,0 48.03,9.08 51.94,7.78s37.65,-35.06 37.65,-35.06s33.75,33.77 37.66,35.06c3.89,1.3 51.93,-7.78 51.93,-7.78l41.57,-48.05l0,-4.64c45.23,-12.37 74.45,-30.11 92.53,-45.34c19,-15.98 25.67,-29.13 26.11,-30.05l6.2,-12.61l-105.78,0zm-270.47,-64.9c3.41,-18.13 6.97,-36.94 9.94,-52.61c1.5,-7.85 2.84,-14.89 3.95,-20.67c1.13,-5.78 2,-10.32 2.55,-13.05l0,-0.02c0.72,-3.5 2.14,-6.67 4.2,-9.57c3.08,-4.36 7.64,-8.08 13.3,-10.71c5.62,-2.62 12.28,-4.12 19.25,-4.12c8.47,0 17.36,2.19 25.64,7.09c9.08,5.38 16.23,8.53 22.26,10.31c3.04,0.9 5.75,1.44 8.22,1.75s4.69,0.38 6.53,0.38c1.75,0 3.22,-0.06 4.41,-0.05c2,0 4.55,-0.04 7.48,-0.33c4.41,-0.37 9.74,-1.26 15.57,-3.15c5.86,-1.89 12.23,-4.78 18.78,-9.16c3.92,-2.62 8.03,-4.5 12.2,-5.72c4.19,-1.23 8.44,-1.81 12.63,-1.81c4.57,0 9.06,0.69 13.25,1.97c6.28,1.92 11.84,5.16 15.98,9.19c2.08,2.03 3.8,4.22 5.11,6.54c1.33,2.33 2.28,4.8 2.81,7.4l0,0.01c0.55,2.74 1.44,7.27 2.55,13.05c3.34,17.34 8.77,46.09 13.89,73.28l0,0c0.69,3.59 1.34,7.16 2,10.67l-244.5,0c0.66,-3.52 1.33,-7.08 2,-10.67zm343.03,84.47c-11.05,11.62 -31.4,28.12 -66.67,41.86c-35.27,13.7 -85.47,24.6 -156.11,24.6c-49.31,0 -88.66,-5.31 -119.92,-13.17c-46.89,-11.81 -75.58,-29.34 -92.5,-43.58c-5.11,-4.31 -9.13,-8.31 -12.27,-11.78l224.69,0l224.69,0c-0.6,0.68 -1.24,1.36 -1.91,2.07z" fill="currentColor" />
 </g>
</svg>